<?xml version="1.0" standalone="no"?>
<!DOCTYPE svg PUBLIC "-//W3C//DTD SVG 20010904//EN"
 "http://www.w3.org/TR/2001/REC-SVG-20010904/DTD/svg10.dtd">
<svg version="1.0" xmlns="http://www.w3.org/2000/svg"
 width="700.000000pt" height="700.000000pt" viewBox="0 0 700.000000 700.000000"
 preserveAspectRatio="xMidYMid meet">
<metadata>
Created by potrace 1.11, written by Peter Selinger 2001-2013
</metadata>
<g transform="translate(0.000000,700.000000) scale(0.100000,-0.100000)"
fill="#000000" stroke="none">
<path d="M3255 6954 c-503 -50 -857 -144 -1243 -330 -942 -451 -1620 -1282
-1872 -2294 -71 -285 -95 -492 -95 -830 0 -279 7 -373 46 -600 146 -846 624
-1631 1311 -2153 505 -383 1061 -606 1718 -689 140 -17 620 -17 760 0 657 83
1213 306 1718 689 687 522 1165 1307 1311 2153 39 227 46 321 46 600 0 279 -7
373 -46 600 -132 765 -537 1486 -1124 1999 -530 464 -1138 737 -1855 836 -110
15 -580 28 -675 19z m483 -1154 c551 -60 1035 -297 1422 -696 424 -438 650
-995 650 -1604 0 -609 -226 -1166 -650 -1604 -599 -618 -1451 -849 -2286 -620
-762 208 -1390 836 -1598 1598 -160 583 -97 1179 180 1704 219 415 586 777
1002 986 238 120 525 205 792 235 110 12 376 13 488 1z"/>
<path d="M3295 4634 c-569 -107 -966 -603 -942 -1178 7 -157 25 -248 78 -380
64 -161 141 -277 265 -398 121 -118 224 -185 380 -247 148 -59 241 -76 424
-76 183 0 276 17 424 76 156 62 259 129 380 247 123 121 201 237 265 398 59
148 76 241 76 424 0 183 -17 276 -76 424 -96 241 -261 435 -485 569 -80 48
-240 111 -334 132 -106 24 -352 28 -455 9z"/>
</g>
</svg>
